<?xml version="1.0" standalone="no"?>
<!DOCTYPE svg PUBLIC "-//W3C//DTD SVG 20010904//EN"
 "http://www.w3.org/TR/2001/REC-SVG-20010904/DTD/svg10.dtd">
<svg version="1.0" xmlns="http://www.w3.org/2000/svg"
 width="136.000000pt" height="136.000000pt" viewBox="0 0 136.000000 136.000000"
 preserveAspectRatio="xMidYMid meet">
<metadata>
Created by potrace 1.14, written by Peter Selinger 2001-2017
</metadata>
<g transform="translate(0.000000,136.000000) scale(0.100000,-0.100000)"
fill="#000000" stroke="none">
<path d="M232 1332 c-27 -13 -37 -14 -54 -3 -21 13 -38 7 -22 -9 20 -20 68
-19 101 1 53 33 35 41 -25 11z"/>
<path d="M476 1296 c-9 -21 -16 -46 -16 -56 0 -9 -11 -29 -25 -44 -14 -15 -25
-35 -25 -45 0 -23 -25 -45 -40 -36 -6 3 -24 34 -41 68 -31 62 -59 97 -78 97
-14 0 -29 -30 -36 -71 -26 -151 -53 -249 -68 -250 -58 -5 -99 -14 -126 -29
-21 -11 -21 -17 -21 -434 l0 -424 24 -6 c14 -3 40 -4 58 -1 19 3 52 7 73 10
22 2 42 5 45 6 3 1 10 2 15 3 33 6 65 19 65 27 0 12 102 -20 123 -39 15 -14
16 -17 2 -32 -8 -9 -15 -20 -15 -23 0 -11 773 -8 790 3 13 9 13 10 0 10 -10 0
-11 3 -3 8 6 4 14 27 18 52 4 24 11 52 15 61 12 22 -7 39 -44 39 l-30 0 45 43
c24 24 51 52 59 63 28 36 69 120 75 154 3 18 8 37 11 42 7 10 7 134 1 158 -14
55 -23 80 -46 122 -28 50 -94 128 -109 128 -28 0 -50 69 -24 78 10 3 8 57 -4
94 -11 36 -55 89 -82 99 -18 7 -31 5 -46 -4 -18 -12 -23 -12 -34 -1 -6 7 -12
17 -12 21 0 4 -12 21 -25 36 -26 29 -45 28 -45 -2 0 -10 -9 -30 -20 -43 -10
-14 -16 -28 -13 -32 3 -3 -1 -6 -10 -6 -8 0 -25 16 -38 36 -39 64 -112 80
-212 48 -70 -22 -89 -14 -92 36 0 19 -6 44 -12 55 -10 17 -12 16 -27 -19z"/>
</g>
</svg>
